<svg xmlns="http://www.w3.org/2000/svg" width="60" height="30.6" viewBox="0 0 60 30.6">
    <g data-name="logo nuevo-edge">
        <path d="M27.996 0h4.008a2.158 2.158 0 0 0 .292.05 53.957 53.957 0 0 1 6.436.612 44.094 44.094 0 0 1 9.908 2.65A24.655 24.655 0 0 1 56.37 8a11.188 11.188 0 0 1 3.249 4.882c.171.547.254 1.119.378 1.68v1.47a.687.687 0 0 0-.057.153A8.746 8.746 0 0 1 58.555 20a15.88 15.88 0 0 1-5.057 4.811 36.442 36.442 0 0 1-12.439 4.717 50.883 50.883 0 0 1-7.428.957c-.542.03-1.081.077-1.625.114h-4.01a2.8 2.8 0 0 0-.326-.051 53.865 53.865 0 0 1-6.829-.678 43.412 43.412 0 0 1-9.881-2.748 24.092 24.092 0 0 1-7.43-4.617A11.032 11.032 0 0 1 .3 17.46c-.13-.467-.2-.95-.3-1.426v-1.465a.673.673 0 0 0 .057-.153 8.556 8.556 0 0 1 1.181-3.471 15.254 15.254 0 0 1 4.876-4.9 32.693 32.693 0 0 1 9.5-4.171A50.709 50.709 0 0 1 26.27.123C26.846.089 27.421.042 27.996 0zm22.2 9.946c-.035-.057-.089-.153-.149-.245A15.548 15.548 0 0 0 45.194 5 27.492 27.492 0 0 0 31.454.941a31.736 31.736 0 0 0-5.8.254 27.852 27.852 0 0 0-8.674 2.573 17.919 17.919 0 0 0-6.272 4.874c-.327.413-.617.854-.967 1.34.228-.021.358-.043.489-.043 1.593 0 3.187-.064 4.771.024a2.87 2.87 0 0 1 2.564 3.116A2.84 2.84 0 0 1 14.71 15.7a31.4 31.4 0 0 1-5.275-.156 2.322 2.322 0 0 0 2.155 2.5c.444.023.892.007 1.332.057s.673.413.632.937a.711.711 0 0 1-.74.74q-.618.018-1.236 0a3.855 3.855 0 0 1-2.358-.889c-.123-.1-.243-.206-.419-.355.044.146.06.221.089.29.136.316.262.637.416.945a14.53 14.53 0 0 0 5.077 5.553 26.738 26.738 0 0 0 13.057 4.273 32.219 32.219 0 0 0 6.337-.116 28.336 28.336 0 0 0 8.366-2.23 18.486 18.486 0 0 0 7.171-5.308 10.618 10.618 0 0 0 2.456-6.792c0-.14-.018-.28-.029-.459a1.235 1.235 0 0 0-.145.108 2.82 2.82 0 0 1-2.3.92 31 31 0 0 1-5.071-.178 2.313 2.313 0 0 0 2.124 2.513c.421.035.846.018 1.267.045.494.031.724.315.723.854s-.236.822-.735.834a15.019 15.019 0 0 1-1.5-.016 4.074 4.074 0 0 1-3.6-3.664 55.813 55.813 0 0 1-.057-3.471 2.737 2.737 0 0 1 2.569-2.675c1.72-.052 3.454-.014 5.181-.014zM47.422 14c.634 0 1.269.02 1.9-.009a1.764 1.764 0 0 0 .786-.208 1.1 1.1 0 0 0 .462-1.283 1.22 1.22 0 0 0-1.184-.858c-1.346-.01-2.692-.005-4.041 0a1.114 1.114 0 0 0-.967.5 1.082 1.082 0 0 0-.094 1.166A1.185 1.185 0 0 0 45.42 14zm-34.794-.017c.657 0 1.313.011 1.97-.006a1.556 1.556 0 0 0 .639-.141 1.119 1.119 0 0 0 .569-1.27 1.2 1.2 0 0 0-1.2-.93c-1.324-.009-2.649 0-3.973 0a1.175 1.175 0 1 0-.015 2.344c.67.009 1.338 0 2.005 0z" data-name="Trazado 272"/>
        <path d="M26.863 10.101a2.353 2.353 0 0 0-2.283-2.543c-.344-.014-.69 0-1.035-.009a.77.77 0 0 1-.8-.867c-.006-.545.268-.866.793-.86a9.6 9.6 0 0 1 1.826.1A4.06 4.06 0 0 1 28.6 9.751c.064 2.113.108 4.23.057 6.343a3.9 3.9 0 0 1-3.825 3.68 20.014 20.014 0 0 1-2.7-.074 4 4 0 0 1-3.362-3.732 23.844 23.844 0 0 1 .005-2.567 3.874 3.874 0 0 1 3.418-3.432c1.317-.085 2.645-.025 3.967-.012a3.774 3.774 0 0 1 .703.144zm.076 4.3h-.012c0-.523.009-1.046 0-1.569a1.194 1.194 0 0 0-1.188-1.2c-1-.014-2-.019-3 0a2.261 2.261 0 0 0-2.219 2 16.521 16.521 0 0 0 0 2.163 2.2 2.2 0 0 0 1.792 2.157 14.679 14.679 0 0 0 2.493.078 2.22 2.22 0 0 0 2.142-2.07c.016-.513-.009-1.037-.009-1.562z" data-name="Trazado 273"/>
        <path d="M38.61 19.679c-.544.04-1.07.1-1.6.11-.924.015-1.848.017-2.772-.01a4.05 4.05 0 0 1-3.843-3.774 16.3 16.3 0 0 1 0-2.5 3.881 3.881 0 0 1 3.8-3.561 13.949 13.949 0 0 1 2.827.1 4.081 4.081 0 0 1 3.272 3.9c.026 1.947.057 3.895.066 5.843a3.962 3.962 0 0 1-4.018 4.084c-.345 0-.69.007-1.035-.009a.757.757 0 0 1-.75-.845.728.728 0 0 1 .7-.842c.4-.031.8-.008 1.2-.038a2.242 2.242 0 0 0 2.153-2.458zm-2.776-1.626v.025h1.435a1.209 1.209 0 0 0 1.327-1.353q-.017-1.385-.042-2.77a2.339 2.339 0 0 0-2.025-2.256 13.26 13.26 0 0 0-2.264-.035 2.3 2.3 0 0 0-2.179 2.411c0 .6.013 1.2.044 1.8a2.3 2.3 0 0 0 2.137 2.173c.521.031 1.045.003 1.567.003z" data-name="Trazado 274"/>
        <path d="M17.871 24.097v-2.86h.357v2.86z" data-name="Trazado 275"/>
        <path d="M19.299 24.097a.583.583 0 0 1-.413-.147.5.5 0 0 1-.159-.385v-1.111a.469.469 0 0 1 .151-.369.608.608 0 0 1 .421-.135h.654a.607.607 0 0 1 .414.137.463.463 0 0 1 .157.367v1.115a.493.493 0 0 1-.163.377.578.578 0 0 1-.409.151zm-.213-.643a.325.325 0 0 0 .057.218.247.247 0 0 0 .194.068h.575q.253 0 .254-.27v-.9a.226.226 0 0 0-.254-.258h-.574a.226.226 0 0 0-.254.258z" data-name="Trazado 276"/>
        <path d="M21.032 24.795v-.353h1.154a1.007 1.007 0 0 0 .127 0 .17.17 0 0 0 .064-.043.269.269 0 0 0 .079-.2v-.1h-.854a.529.529 0 0 1-.4-.171.579.579 0 0 1-.161-.415v-1.011a.559.559 0 0 1 .145-.395.474.474 0 0 1 .363-.156h.757a.482.482 0 0 1 .367.141.535.535 0 0 1 .133.383v1.793a.487.487 0 0 1-.162.385.651.651 0 0 1-.444.143zm.369-1.313a.268.268 0 0 0 .064.186.211.211 0 0 0 .166.072h.626q.2 0 .2-.258v-.932q0-.242-.194-.242h-.6a.265.265 0 0 0-.188.065.232.232 0 0 0-.069.177z" data-name="Trazado 277"/>
        <path d="M23.242 21.486a.249.249 0 0 1 .068-.178.223.223 0 0 1 .171-.072.247.247 0 0 1 .181.073.241.241 0 0 1 .073.176.246.246 0 1 1-.492 0zm.072 2.61V21.95h.353v2.146z" data-name="Trazado 278"/>
        <path d="M24.099 24.097v-.355h1.1q.146 0 .146-.215v-.166q0-.2-.21-.2h-.484a.591.591 0 0 1-.369-.1.411.411 0 0 1-.123-.153.437.437 0 0 1-.047-.192v-.27a.5.5 0 0 1 .126-.361.462.462 0 0 1 .348-.131h1.116v.357h-1.081a.151.151 0 0 0-.111.044.155.155 0 0 0-.043.114v.155a.159.159 0 0 0 .057.125.209.209 0 0 0 .141.049h.532a.5.5 0 0 1 .357.147.472.472 0 0 1 .151.349v.337a.455.455 0 0 1-.139.326.437.437 0 0 1-.322.143z" data-name="Trazado 279"/>
        <path d="M26.137 24.097v-2.86h.357v.714h.365v.357h-.365v1.789z" data-name="Trazado 280"/>
        <path d="M27.006 21.486a.249.249 0 0 1 .067-.178.224.224 0 0 1 .171-.072.245.245 0 0 1 .18.073.241.241 0 0 1 .073.176.246.246 0 0 1-.492 0zm.071 2.61V21.95h.353v2.146z" data-name="Trazado 281"/>
        <path d="M29.355 24.097h-.822a.608.608 0 0 1-.425-.155.5.5 0 0 1-.171-.389v-1.059a.635.635 0 0 1 .044-.26.376.376 0 0 1 .154-.164.662.662 0 0 1 .393-.119h.818v.357h-.814a.22.22 0 0 0-.234.234v.932a.269.269 0 0 0 .072.186.228.228 0 0 0 .174.08h.813z" data-name="Trazado 282"/>
        <path d="M29.68 24.097v-.355h1.1q.147 0 .147-.215v-.166c0-.135-.071-.2-.211-.2h-.484a.589.589 0 0 1-.369-.1.406.406 0 0 1-.123-.153.437.437 0 0 1-.047-.192v-.27a.5.5 0 0 1 .126-.361.464.464 0 0 1 .348-.131h1.116v.357h-1.081a.149.149 0 0 0-.11.044.155.155 0 0 0-.044.114v.155a.159.159 0 0 0 .057.125.21.21 0 0 0 .141.05h.532a.5.5 0 0 1 .357.147.469.469 0 0 1 .151.349v.337a.455.455 0 0 1-.139.325.437.437 0 0 1-.322.143z" data-name="Trazado 283"/>
    </g>
</svg>
