<svg xmlns="http://www.w3.org/2000/svg" width="14.417" height="14.416" viewBox="0 0 14.417 14.416">
  <path id="path" d="M198.753,806.859h1.364v1.3h-1.364a5.891,5.891,0,0,1-5.2,5.2v1.364h-1.3v-1.364a5.891,5.891,0,0,1-5.2-5.2H185.7v-1.3h1.364a5.891,5.891,0,0,1,5.2-5.2V800.3h1.3v1.364a5.606,5.606,0,0,1,3.507,1.688A5.96,5.96,0,0,1,198.753,806.859Zm-9.027,3.9a4.263,4.263,0,0,0,3.182,1.3,4.5,4.5,0,1,0-4.481-4.481A4.263,4.263,0,0,0,189.726,810.755Zm1.364-5.065a2.511,2.511,0,1,1-.779,1.818A2.457,2.457,0,0,1,191.09,805.69Z" transform="translate(-185.7 -800.301)" fill="#000"/>
</svg>
