<svg xmlns="http://www.w3.org/2000/svg" width="22.233" height="20.212" viewBox="0 0 22.233 20.212">
  <path id="Path_350" data-name="Path 350" d="M5.374,4.48a1.335,1.335,0,0,1,1.3,1.343V18.909a1.3,1.3,0,0,1-1.3,1.3H1.3a1.3,1.3,0,0,1-1.3-1.3V5.823A1.333,1.333,0,0,1,1.3,4.48Zm-.049,1.4L1.352,18.816H5.326Zm7.826,3.085a1.335,1.335,0,0,1,1.3,1.343v8.605a1.3,1.3,0,0,1-1.3,1.3H9.08a1.3,1.3,0,0,1-1.3-1.3V10.3a1.333,1.333,0,0,1,1.3-1.343Zm-4.022,1.4v8.46H13.1ZM20.93,0a1.335,1.335,0,0,1,1.3,1.343V18.909a1.3,1.3,0,0,1-1.3,1.3H16.858a1.3,1.3,0,0,1-1.3-1.3V1.343A1.333,1.333,0,0,1,16.858,0Zm-.049,1.4-3.974,17.42h3.974Z" fill="#7f8489"/>
</svg>
