<svg id="Menu_icon_loads_1_" data-name="Menu_icon_loads (1)" xmlns="http://www.w3.org/2000/svg" width="19.266" height="19.266" viewBox="0 0 19.266 19.266">
  <g id="dashboard-off">
    <g id="menu">
      <g id="Menu_icon_loads">
        <path id="Path_213" data-name="Path 213" d="M10.007,8.832H4.386V19.881L20.88,8.832H15.264v3.992a.693.693,0,0,1-.693.693H10.7a.693.693,0,0,1-.693-.693Zm0-1.385V7.279a.693.693,0,0,1,.03-.2l1.122-3.692H6.807l-2,4.061Zm2.537-4.061a.69.69,0,0,1-.025.288L11.392,7.381v4.75h2.487V7.381L12.752,3.673a.69.69,0,0,1-.025-.288Zm1.569,0,1.122,3.692a.693.693,0,0,1,.03.2v.168h5.2l-2-4.061Zm8.153,4.79s0,0,0,.007V20.574a.693.693,0,0,1-.693.693H3.693A.693.693,0,0,1,3,20.574V8.183s0-.007,0-.011a.688.688,0,0,1,.071-.339L5.755,2.387A.693.693,0,0,1,6.376,2H18.89a.693.693,0,0,1,.621.387l2.683,5.447A.687.687,0,0,1,22.265,8.176Z" transform="translate(-3 -2)" fill="#7F8489"/>
      </g>
    </g>
  </g>
</svg>
