<svg xmlns="http://www.w3.org/2000/svg" width="9.168" height="12.939" viewBox="0 0 9.168 12.939">
  <path id="path" d="M301.9,802.8a4.268,4.268,0,0,1,3.186-1.3,4.441,4.441,0,0,1,4.486,4.486,5.541,5.541,0,0,1-.455,2.146,15.046,15.046,0,0,1-1.17,2.276c-.455.715-.91,1.365-1.3,2.016a11.169,11.169,0,0,1-1.105,1.5l-.52.52c-.13-.13-.26-.325-.52-.585a14.341,14.341,0,0,1-1.105-1.43c-.52-.715-.975-1.365-1.365-2.016a17.518,17.518,0,0,1-1.105-2.211,6.026,6.026,0,0,1-.52-2.211A5.614,5.614,0,0,1,301.9,802.8Zm2.081,4.356a1.732,1.732,0,1,0-.455-1.17A1.567,1.567,0,0,0,303.976,807.157Z" transform="translate(-300.4 -801.5)" fill="#000"/>
</svg>
