<svg id="Menu_icon_oferts" xmlns="http://www.w3.org/2000/svg" width="21.225" height="21.225" viewBox="0 0 21.225 21.225">
  <path id="Path_214" data-name="Path 214" d="M11.068,13.046,3.213,21.014a.7.7,0,0,1-1,0,.728.728,0,0,1,0-1.019l7.855-7.968-3-3.04a1.664,1.664,0,0,1-1.522-.464l-.157-.158a1.726,1.726,0,0,1,0-2.415L10.761.5a1.667,1.667,0,0,1,2.38,0L13.3.658a1.721,1.721,0,0,1,.457,1.551l7.292,7.4a1.666,1.666,0,0,1,1.53.464l.155.157a1.725,1.725,0,0,1,0,2.416l-5.372,5.449a1.666,1.666,0,0,1-2.382,0l-.155-.157a1.721,1.721,0,0,1-.458-1.545ZM8.251,8.151l6.937,7.036,4.675-4.744ZM6.821,7.564l5.532-5.609a.267.267,0,0,0-.059-.278l-.156-.158a.26.26,0,0,0-.372,0L6.392,6.969a.27.27,0,0,0,0,.377l.157.158A.259.259,0,0,0,6.821,7.564Zm8.946,9.074a.268.268,0,0,0,.06.278l.155.158a.26.26,0,0,0,.372,0l5.372-5.449a.27.27,0,0,0,0-.378l-.155-.158a.259.259,0,0,0-.276-.061Z" transform="translate(-2 0)" fill="#7f8489"/>
</svg>
