<svg xmlns="http://www.w3.org/2000/svg" width="24.494" height="24.494" viewBox="0 0 24.494 24.494">
  <g id="Group_1900" data-name="Group 1900" transform="translate(-1893 -247.155)">
    <g id="Group_1899" data-name="Group 1899">
      <path id="Path_345" data-name="Path 345" d="M22.453,2.3H19.136V.765a.765.765,0,0,0-1.531,0V2.3H13.013V.765a.765.765,0,0,0-1.531,0V2.3H6.889V.765a.765.765,0,0,0-1.531,0V2.3H2.041A2.041,2.041,0,0,0,0,4.337V22.453a2.041,2.041,0,0,0,2.041,2.041H22.453a2.041,2.041,0,0,0,2.041-2.041V4.337A2.04,2.04,0,0,0,22.453,2.3Zm.51,20.156a.511.511,0,0,1-.51.511H2.041a.511.511,0,0,1-.511-.511V4.337a.511.511,0,0,1,.511-.51H5.358V5.358a.765.765,0,0,0,1.531,0V3.827h4.593V5.358a.765.765,0,0,0,1.531,0V3.827h4.593V5.358a.765.765,0,0,0,1.531,0V3.827h3.317a.511.511,0,0,1,.51.51Z" transform="translate(1893 247.155)" fill="#7f8489"/>
      <path id="Path_348" data-name="Path 348" d="M2.745,0V2.745H0Z" transform="translate(1897.981 255.178)" fill="#7f8489"/>
      <rect id="Rectangle_1308" data-name="Rectangle 1308" width="3" height="3" transform="translate(1898 255)" fill="none" stroke="#7f8489" stroke-width="1"/>
      <path id="Path_348-2" data-name="Path 348" d="M2.745,0V2.745H0Z" transform="translate(1897.981 260.178)" fill="#7f8489"/>
      <rect id="Rectangle_1308-2" data-name="Rectangle 1308" width="3" height="3" transform="translate(1898 260)" fill="none" stroke="#7f8489" stroke-width="1"/>
      <path id="Path_348-3" data-name="Path 348" d="M2.745,0V2.745H0Z" transform="translate(1897.981 265.178)" fill="#7f8489"/>
      <rect id="Rectangle_1308-3" data-name="Rectangle 1308" width="3" height="3" transform="translate(1898 265)" fill="none" stroke="#7f8489" stroke-width="1"/>
      <path id="Path_348-4" data-name="Path 348" d="M2.745,0V2.745H0Z" transform="translate(1903.981 255.178)" fill="#7f8489"/>
      <rect id="Rectangle_1308-4" data-name="Rectangle 1308" width="3" height="3" transform="translate(1904 255)" fill="none" stroke="#7f8489" stroke-width="1"/>
      <path id="Path_348-5" data-name="Path 348" d="M2.745,0V2.745H0Z" transform="translate(1903.981 260.178)" fill="#7f8489"/>
      <rect id="Rectangle_1308-5" data-name="Rectangle 1308" width="3" height="3" transform="translate(1904 260)" fill="none" stroke="#7f8489" stroke-width="1"/>
      <path id="Path_348-6" data-name="Path 348" d="M2.745,0V2.745H0Z" transform="translate(1903.981 265.178)" fill="#7f8489"/>
      <rect id="Rectangle_1308-6" data-name="Rectangle 1308" width="3" height="3" transform="translate(1904 265)" fill="none" stroke="#7f8489" stroke-width="1"/>
      <path id="Path_348-7" data-name="Path 348" d="M2.745,0V2.745H0Z" transform="translate(1909.981 255.178)" fill="#7f8489"/>
      <rect id="Rectangle_1308-7" data-name="Rectangle 1308" width="3" height="3" transform="translate(1910 255)" fill="none" stroke="#7f8489" stroke-width="1"/>
      <path id="Path_348-8" data-name="Path 348" d="M2.745,0V2.745H0Z" transform="translate(1909.981 260.178)" fill="#7f8489"/>
      <rect id="Rectangle_1308-8" data-name="Rectangle 1308" width="3" height="3" transform="translate(1910 260)" fill="none" stroke="#7f8489" stroke-width="1"/>
      <path id="Path_348-9" data-name="Path 348" d="M2.745,0V2.745H0Z" transform="translate(1909.981 265.178)" fill="#7f8489"/>
      <rect id="Rectangle_1308-9" data-name="Rectangle 1308" width="3" height="3" transform="translate(1910 265)" fill="none" stroke="#7f8489" stroke-width="1"/>
    </g>
  </g>
</svg>
