<svg id="Group_1901" data-name="Group 1901" xmlns="http://www.w3.org/2000/svg" width="20.459" height="13.53" viewBox="0 0 20.459 13.53">
  <path id="Path_349" data-name="Path 349" d="M7.743,104.7a1.817,1.817,0,1,1-1.816-1.858A1.838,1.838,0,0,1,7.743,104.7Zm-.908,0a.908.908,0,1,0-.908.929A.919.919,0,0,0,6.835,104.7Zm-2.473-1.858H.292a.3.3,0,0,0-.292.3v.906a.3.3,0,0,0,.292.3H3.555A2.466,2.466,0,0,1,4.362,102.844ZM17.247,104.7a1.817,1.817,0,1,1-1.816-1.858A1.838,1.838,0,0,1,17.247,104.7Zm-.908,0a.908.908,0,1,0-.908.929A.919.919,0,0,0,16.339,104.7Zm4.119-1.559v.906a.3.3,0,0,1-.292.3H17.8a2.39,2.39,0,0,0-4.745,0H8.3a2.466,2.466,0,0,0-.808-1.5H12V94.3a.591.591,0,0,1,.584-.6h2.756a2.322,2.322,0,0,1,1.936,1.052l1.777,2.691a2.427,2.427,0,0,1,.4,1.337v4.057h.71A.3.3,0,0,1,20.459,103.143ZM17.5,97.519l-1.421-2.065a.29.29,0,0,0-.239-.127H13.621a.3.3,0,0,0-.292.3v2.065a.3.3,0,0,0,.292.3h3.637A.3.3,0,0,0,17.5,97.519Z" transform="translate(0 -93.03)" fill="#7F8489"/>
  <g id="Rectangle_1309" data-name="Rectangle 1309" fill="#fff" stroke="#7F8489" stroke-width="1">
    <rect width="11" height="9" rx="2" stroke="none"/>
    <rect x="0.5" y="0.5" width="10" height="8" rx="1.5" fill="none"/>
  </g>
  <path id="Path_352" data-name="Path 352" d="M7.609,0V5.875H0Z" transform="translate(2.62 1.769)" fill="#7F8489" stroke="#7F8489" stroke-width="1"/>
</svg>
